<svg width="80" height="80" viewBox="0 0 80 80" fill="none" xmlns="http://www.w3.org/2000/svg">
<rect width="80" height="80" fill="white"/>
<path d="M62.4004 68.3504C52.4497 71.4041 43.0612 69.9903 37.9453 68.6331C37.8048 70.7255 37.5799 71.602 37.2426 71.9413C36.8491 72.3937 33.5884 74.2599 31.7894 71.602C31.0023 70.3296 30.6088 68.0394 30.3839 65.947C18.8591 60.6878 13.5183 52.9404 13.3497 52.6577C13.0686 52.3749 10.4544 49.6322 13.0686 46.2392C15.5141 43.1855 23.6096 40.1035 30.8618 38.8876C31.1429 32.6671 31.8175 27.8603 32.6889 25.7397C33.7289 23.1949 35.0501 25.4569 36.2306 27.1534C37.1864 28.4258 37.7767 33.8829 37.8329 38.2373C42.5552 38.0111 45.4224 38.3504 50.6788 39.3683C57.5937 40.5559 62.2036 44.1186 61.8382 48.1336C61.5009 52.0922 57.9029 53.7321 56.4975 53.8452C55.092 53.9583 52.8432 52.9121 52.8432 52.9121C51.2691 52.177 52.7027 51.4984 54.5298 50.7067C56.5537 49.717 56.1039 48.7274 56.1039 48.7274C55.3731 46.4654 46.4062 44.9668 37.4956 44.9668C37.4956 49.915 37.6923 58.1148 37.8329 62.8933C44.0731 64.0808 48.7393 63.8264 48.7393 63.8264C48.7393 63.8264 71.5078 63.176 72.1543 48.5578C72.8571 33.9112 49.3858 19.8867 32.0986 15.4758C14.8395 10.9235 5.05744 14.1469 4.21416 14.571C3.28656 15.0234 4.12984 15.193 4.12984 15.193C4.12984 15.193 5.05744 15.3344 6.744 15.8999C8.43056 16.4654 7.08131 17.3137 7.08131 17.3137C4.12984 18.3316 0.841048 17.7378 0.194535 16.3806C-0.451979 15.0517 0.616174 13.8358 1.88109 12.0545C3.06168 10.2166 4.41093 10.2732 4.41093 10.2732C25.774 2.78024 51.8594 16.211 51.8594 16.211C76.2583 28.5955 80.4185 43.1572 79.9687 48.8122C79.5752 54.3824 77.4389 63.7981 62.4004 68.3787M15.4579 48.1336C13.0405 49.2646 14.727 51.0742 14.727 51.0742C19.2807 55.9659 24.8464 59.0478 30.1872 60.9706C30.8056 52.488 30.7493 49.4626 30.7493 45.193C22.4852 45.7585 17.7066 47.1157 15.4579 48.1336Z" fill="black"/>
</svg>
